<svg width="17" height="21" viewBox="0 0 17 21" fill="none" xmlns="http://www.w3.org/2000/svg">
<path d="M4.5408 10.4218C4.68163 10.3693 4.83308 10.3421 4.98618 10.3416C5.13929 10.3411 5.29096 10.3674 5.43222 10.419C5.57348 10.4706 5.70146 10.5463 5.8086 10.6418C5.91574 10.7373 5.99987 10.8506 6.05601 10.9749C6.11214 11.0993 6.13915 11.2322 6.13544 11.3659C6.13172 11.4995 6.09735 11.6311 6.03437 11.7529C5.97139 11.8748 5.88106 11.9844 5.76874 12.0752C5.65642 12.166 5.52437 12.2363 5.38041 12.2818C4.61473 12.5452 3.95757 13.0037 3.49444 13.5976C3.03131 14.1915 2.78365 14.8933 2.78369 15.6118V17.3518C2.78369 17.617 2.90437 17.8714 3.11918 18.0589C3.33399 18.2465 3.62534 18.3518 3.92913 18.3518H13.0927C13.3965 18.3518 13.6878 18.2465 13.9027 18.0589C14.1175 17.8714 14.2381 17.617 14.2381 17.3518V15.7048C14.2383 14.9633 13.9803 14.2392 13.4983 13.6286C13.0164 13.018 12.3332 12.5497 11.5395 12.2858C11.3946 12.2419 11.2613 12.1731 11.1475 12.0834C11.0337 11.9937 10.9417 11.885 10.8769 11.7637C10.8121 11.6424 10.7758 11.5109 10.7703 11.3771C10.7648 11.2434 10.7901 11.11 10.8447 10.9849C10.8993 10.8598 10.9821 10.7456 11.0882 10.649C11.1943 10.5524 11.3216 10.4753 11.4624 10.4224C11.6033 10.3695 11.7549 10.3419 11.9082 10.3411C12.0615 10.3403 12.2135 10.3664 12.355 10.4178C13.5825 10.826 14.6389 11.5501 15.3843 12.4943C16.1297 13.4385 16.5289 14.5581 16.529 15.7048V17.3518C16.529 18.1475 16.167 18.9105 15.5226 19.4731C14.8781 20.0357 14.0041 20.3518 13.0927 20.3518H3.92913C3.01776 20.3518 2.14372 20.0357 1.49928 19.4731C0.854839 18.9105 0.492798 18.1475 0.492798 17.3518L0.492798 15.6118C0.492955 14.492 0.87913 13.3981 1.60109 12.4724C2.32304 11.5468 3.34736 10.8323 4.5408 10.4218ZM8.51092 0.351807C9.72608 0.351807 10.8915 0.773234 11.7507 1.52338C12.61 2.27352 13.0927 3.29094 13.0927 4.35181V6.35181C13.0927 7.41267 12.61 8.43009 11.7507 9.18023C10.8915 9.93038 9.72608 10.3518 8.51092 10.3518C7.29575 10.3518 6.13036 9.93038 5.27111 9.18023C4.41186 8.43009 3.92913 7.41267 3.92913 6.35181V4.35181C3.92913 3.29094 4.41186 2.27352 5.27111 1.52338C6.13036 0.773234 7.29575 0.351807 8.51092 0.351807ZM8.51092 2.35181C7.90333 2.35181 7.32064 2.56252 6.89101 2.93759C6.46139 3.31267 6.22003 3.82137 6.22003 4.35181V6.35181C6.22003 6.88224 6.46139 7.39095 6.89101 7.76602C7.32064 8.14109 7.90333 8.35181 8.51092 8.35181C9.1185 8.35181 9.7012 8.14109 10.1308 7.76602C10.5604 7.39095 10.8018 6.88224 10.8018 6.35181V4.35181C10.8018 3.82137 10.5604 3.31267 10.1308 2.93759C9.7012 2.56252 9.1185 2.35181 8.51092 2.35181Z" fill="#030303"/>
</svg>
