<svg width="23" height="21" viewBox="0 0 23 21" fill="none" xmlns="http://www.w3.org/2000/svg">
<path d="M9.17772 20.3518C8.52916 20.3518 7.90718 20.0942 7.44858 19.6356C6.98999 19.177 6.73235 18.555 6.73235 17.9064C6.73235 17.2579 6.98999 16.6359 7.44858 16.1773C7.90718 15.7187 8.52916 15.4611 9.17772 15.4611C9.82627 15.4611 10.4483 15.7187 10.9068 16.1773C11.3654 16.6359 11.6231 17.2579 11.6231 17.9064C11.6231 18.555 11.3654 19.177 10.9068 19.6356C10.4483 20.0942 9.82627 20.3518 9.17772 20.3518ZM17.7365 20.3518C17.0879 20.3518 16.466 20.0942 16.0074 19.6356C15.5488 19.177 15.2911 18.555 15.2911 17.9064C15.2911 17.2579 15.5488 16.6359 16.0074 16.1773C16.466 15.7187 17.0879 15.4611 17.7365 15.4611C18.385 15.4611 19.007 15.7187 19.4656 16.1773C19.9242 16.6359 20.1819 17.2579 20.1819 17.9064C20.1819 18.555 19.9242 19.177 19.4656 19.6356C19.007 20.0942 18.385 20.3518 17.7365 20.3518ZM1.79516 3.1401C1.48993 3.13025 1.2005 3.00208 0.988068 2.78269C0.775635 2.56329 0.65686 2.26988 0.65686 1.96449C0.65686 1.6591 0.775635 1.36569 0.988068 1.14629C1.2005 0.926896 1.48993 0.798724 1.79516 0.788879L3.20247 0.788879C4.30533 0.788879 5.25902 1.55428 5.49867 2.63024L7.03069 9.52861C7.27033 10.6046 8.22402 11.37 9.32688 11.37H18.5117L20.2748 4.31509H8.84881C8.54646 4.3013 8.26106 4.17148 8.05197 3.95263C7.84289 3.73379 7.72621 3.44277 7.72621 3.1401C7.72621 2.83743 7.84289 2.54641 8.05197 2.32756C8.26106 2.10872 8.54646 1.9789 8.84881 1.9651H20.2748C20.6322 1.96499 20.985 2.04638 21.3062 2.20308C21.6275 2.35977 21.9088 2.58764 22.1287 2.86938C22.3487 3.15111 22.5015 3.47928 22.5756 3.82895C22.6497 4.17862 22.6431 4.54058 22.5563 4.88731L20.7932 11.9397C20.6661 12.4486 20.3725 12.9004 19.9591 13.2232C19.5457 13.546 19.0362 13.7213 18.5117 13.7212H9.32688C8.25678 13.7213 7.21864 13.3565 6.3839 12.6869C5.54917 12.0174 4.96776 11.0831 4.73571 10.0385L3.20247 3.1401H1.79516Z" fill="#181725"/>
</svg>
