<svg width="24" height="20" viewBox="0 0 24 20" fill="none" xmlns="http://www.w3.org/2000/svg">
<path d="M3.93092 8.84344L11.755 16.6675L19.5791 8.84344C20.2709 8.15169 20.6595 7.21348 20.6595 6.2352C20.6595 5.25693 20.2709 4.31871 19.5791 3.62697C19.2366 3.28445 18.83 3.01275 18.3825 2.82738C17.9349 2.64201 17.4553 2.5466 16.9709 2.5466C15.9926 2.5466 15.0544 2.93522 14.3626 3.62697L11.755 6.23459L9.1474 3.6282C8.45389 2.94573 7.5188 2.56495 6.54581 2.56879C5.57283 2.57264 4.64078 2.9608 3.95269 3.64873C3.26459 4.33666 2.87621 5.26862 2.87213 6.24161C2.86806 7.21459 3.24862 8.14977 3.93092 8.84344ZM10.8858 1.88732L11.755 2.75653L12.6242 1.88732C13.1941 1.3124 13.872 0.855711 14.6189 0.543466C15.3657 0.23122 16.1669 0.0695713 16.9765 0.0677986C17.786 0.066026 18.5879 0.224165 19.3361 0.533136C20.0844 0.842107 20.7642 1.29583 21.3366 1.86824C21.909 2.44066 22.3628 3.12051 22.6717 3.86874C22.9807 4.61698 23.1388 5.41888 23.1371 6.2284C23.1353 7.03792 22.9736 7.83912 22.6614 8.58599C22.3491 9.33287 21.8925 10.0107 21.3175 10.5806L12.6255 19.2739C12.5113 19.3882 12.3757 19.4789 12.2264 19.5408C12.0772 19.6027 11.9172 19.6345 11.7556 19.6345C11.5941 19.6345 11.4341 19.6027 11.2848 19.5408C11.1356 19.4789 11 19.3882 10.8858 19.2739L2.19251 10.5819C1.60977 10.0138 1.14563 9.33566 0.827013 8.58681C0.508396 7.83796 0.341644 7.0333 0.33643 6.21951C0.331216 5.40572 0.487643 4.59899 0.796639 3.84612C1.10563 3.09325 1.56105 2.40923 2.13646 1.83374C2.71187 1.25825 3.39582 0.802737 4.14865 0.493635C4.90147 0.184534 5.70818 0.0279921 6.52198 0.0330911C7.33577 0.0381901 8.14045 0.204828 8.88935 0.523339C9.63824 0.84185 10.3164 1.30589 10.8846 1.88855L10.8858 1.88732Z" fill="#181725"/>
</svg>
